<?xml version="1.0" encoding="UTF-8" standalone="no"?>
<svg
   xmlns:dc="http://purl.org/dc/elements/1.1/"
   xmlns:cc="http://creativecommons.org/ns#"
   xmlns:rdf="http://www.w3.org/1999/02/22-rdf-syntax-ns#"
   xmlns:svg="http://www.w3.org/2000/svg"
   xmlns="http://www.w3.org/2000/svg"
   xmlns:sodipodi="http://sodipodi.sourceforge.net/DTD/sodipodi-0.dtd"
   xmlns:inkscape="http://www.inkscape.org/namespaces/inkscape"
   xml:space="preserve"
   width="350"
   height="275.90552"
   version="1.1"
   style="clip-rule:evenodd;fill-rule:evenodd;image-rendering:optimizeQuality;shape-rendering:geometricPrecision;text-rendering:geometricPrecision"
   viewBox="0 0 9260.4148 7300"
   id="svg516"
   sodipodi:docname="logo.svg"
   inkscape:version="1.0.2 (e86c870879, 2021-01-15)"><metadata
   id="metadata520"><rdf:RDF><cc:Work
       rdf:about=""><dc:format>image/svg+xml</dc:format><dc:type
         rdf:resource="http://purl.org/dc/dcmitype/StillImage" /><dc:title></dc:title></cc:Work></rdf:RDF></metadata><sodipodi:namedview
   pagecolor="#ffffff"
   bordercolor="#666666"
   borderopacity="1"
   objecttolerance="10"
   gridtolerance="10"
   guidetolerance="10"
   inkscape:pageopacity="0"
   inkscape:pageshadow="2"
   inkscape:window-width="1563"
   inkscape:window-height="835"
   id="namedview518"
   showgrid="false"
   inkscape:lockguides="false"
   units="px"
   inkscape:zoom="1.7450609"
   inkscape:cx="336.37795"
   inkscape:cy="137.95276"
   inkscape:window-x="0"
   inkscape:window-y="0"
   inkscape:window-maximized="0"
   inkscape:current-layer="svg516"
   inkscape:document-rotation="0" />
 <defs
   id="defs286">
  <style
   type="text/css"
   id="style284">
   <![CDATA[
    .fil2 {fill:#336699;fill-rule:nonzero}
    .fil0 {fill:#4981B9;fill-rule:nonzero}
    .fil1 {fill:black;fill-rule:nonzero}
   ]]>
  </style>
 </defs>
 <g
   id="Слой_x0020_1"
   transform="translate(687.91658)">
  <metadata
   id="CorelCorpID_0Corel-Layer" />
  <path
   class="fil0"
   d="m 4420,6063 c 0,0 1976,-2766 1976,-2766 -22,-29 -41,-58 -61,-77 0,0 -1847,2582 -1847,2582 3,58 -23,143 -68,261 z"
   id="path289" />
  <path
   class="fil0"
   d="m 1606,4122 c 33,28 52,53 65,69 0,0 348,-482 348,-482 -3,-52 -6,-101 -6,-152 0,0 -407,565 -407,565 z"
   id="path291" />
  <path
   class="fil0"
   d="m 2199,4959 c 0,0 207,-288 207,-288 -22,-25 -42,-54 -62,-80 0,0 -248,348 -248,348 29,3 58,10 85,16 6,0 13,0 18,4 z"
   id="path293" />
  <path
   class="fil0"
   d="m 4449,5721 c 0,0 609,-855 609,-855 -80,76 -167,145 -261,202 0,0 -558,780 -558,780 127,-100 174,-145 210,-127 z"
   id="path295" />
  <path
   class="fil0"
   d="m 2004,4933 c 0,0 295,-413 295,-413 -18,-29 -38,-58 -54,-87 0,0 -355,493 -355,493 38,4 78,4 114,7 z"
   id="path297" />
  <path
   class="fil0"
   d="m 2951,5410 c 0,0 149,-207 149,-207 -30,-13 -59,-25 -87,-42 0,0 -195,272 -195,272 33,-11 62,-17 85,-20 16,0 31,-3 48,-3 z"
   id="path299" />
  <path
   class="fil0"
   d="m 2449,6048 c -94,86 -150,151 -210,200 0,0 -152,208 -152,208 36,11 71,16 103,20 0,0 587,-822 587,-822 -126,107 -167,252 -328,394 z"
   id="path301" />
  <path
   class="fil0"
   d="m 2031,6324 c -25,5 -51,7 -69,10 0,0 -52,71 -52,71 29,13 61,22 94,33 0,0 86,-122 86,-122 -19,2 -39,6 -59,8 z"
   id="path303" />
  <path
   class="fil0"
   d="m 1839,5464 c -72,9 -110,16 -132,20 -27,7 -27,7 -27,7 0,0 7,2 16,9 18,9 46,25 87,42 0,0 56,-78 56,-78 z"
   id="path305" />
  <path
   class="fil0"
   d="m 2219,5232 c -106,87 -174,152 -255,190 0,0 -103,145 -103,145 32,11 65,16 103,23 0,0 255,-358 255,-358 z"
   id="path307" />
  <path
   class="fil0"
   d="m 2165,5596 c 2,0 6,0 9,0 0,0 480,-670 480,-670 -26,-22 -48,-42 -71,-65 0,0 -132,188 -132,188 0,0 -55,74 -55,74 0,0 -341,477 -341,477 35,3 70,0 110,-4 z"
   id="path309" />
  <path
   class="fil0"
   d="m 2941,5127 c -29,-18 -54,-33 -83,-49 0,0 -317,442 -317,442 55,-17 107,-33 152,-49 0,0 248,-344 248,-344 z"
   id="path311" />
  <path
   class="fil0"
   d="m 2525,4807 c -23,-26 -45,-48 -67,-74 0,0 -175,249 -175,249 36,9 68,18 94,31 0,0 148,-206 148,-206 z"
   id="path313" />
  <path
   class="fil0"
   d="m 3177,5236 c 0,0 -133,184 -133,184 42,6 65,18 65,18 0,0 -54,33 -139,84 0,0 -677,947 -677,947 36,-2 80,-9 129,-19 0,0 848,-1182 848,-1182 -32,-10 -65,-23 -93,-32 z"
   id="path315" />
  <path
   class="fil0"
   d="m 4462,5239 c 0,0 -635,889 -635,889 -9,45 -16,87 -16,138 0,16 0,34 0,45 0,0 821,-1146 821,-1146 -54,25 -112,51 -170,74 z"
   id="path317" />
  <path
   class="fil0"
   d="m 4077,5335 c -40,7 -82,10 -125,13 0,0 -211,297 -211,297 9,-4 16,-4 23,-7 40,-6 76,-13 108,-13 0,0 205,-290 205,-290 z"
   id="path319" />
  <path
   class="fil0"
   d="m 4332,5281 c -47,13 -93,25 -141,36 0,0 -219,306 -219,306 36,2 58,9 58,9 0,0 -91,96 -142,271 0,0 444,-622 444,-622 z"
   id="path321" />
  <path
   class="fil0"
   d="m 3350,5290 c 0,0 -812,1137 -812,1137 45,-12 94,-22 145,-38 0,0 768,-1072 768,-1072 -36,-7 -68,-18 -101,-27 z"
   id="path323" />
  <path
   class="fil0"
   d="m 3538,5332 c 0,0 -722,1008 -722,1008 58,-22 118,-51 177,-83 0,0 652,-912 652,-912 -36,-3 -76,-6 -107,-13 z"
   id="path325" />
  <path
   class="fil0"
   d="m 3823,5355 c -29,0 -57,0 -86,-3 0,0 -532,744 -532,744 149,-136 261,-258 362,-345 0,0 282,-396 282,-396 -6,0 -16,0 -26,0 z"
   id="path327" />
  <path
   class="fil0"
   d="m 2793,5033 c -26,-20 -51,-40 -78,-58 0,0 -432,605 -432,605 46,-6 90,-15 137,-29 0,0 373,-518 373,-518 z"
   id="path329" />
  <path
   class="fil0"
   d="m 5133,5339 c 0,0 6,3 13,9 0,0 993,-1391 993,-1391 0,-3 0,-7 0,-7 0,0 0,4 2,4 0,0 378,-526 378,-526 -25,-23 -48,-44 -71,-67 0,0 -2122,2968 -2122,2968 -9,57 -16,118 -12,182 0,0 821,-1153 821,-1153 -2,-19 -2,-19 -2,-19 z"
   id="path331" />
  <path
   class="fil0"
   d="m 2806,1103 c 0,0 187,-257 187,-257 -81,64 -139,116 -187,257 z"
   id="path333" />
  <path
   class="fil0"
   d="m 7335,3950 c -3,-3 -9,-7 -14,-9 0,0 -131,189 -131,189 33,3 62,10 96,26 0,0 104,-141 104,-141 -17,-23 -35,-46 -55,-65 z"
   id="path335" />
  <path
   class="fil0"
   d="m 6661,3528 c -28,-16 -55,-32 -80,-52 0,0 -362,507 -362,507 27,11 59,25 90,34 0,0 352,-489 352,-489 z"
   id="path337" />
  <path
   class="fil0"
   d="m 7038,3737 c 0,0 -264,374 -264,374 35,4 73,6 109,11 0,0 235,-333 235,-333 -25,-20 -51,-36 -80,-52 z"
   id="path339" />
  <path
   class="fil0"
   d="m 4453,6918 c 0,0 503,-706 503,-706 15,-29 28,-62 45,-87 35,-68 67,-165 93,-268 0,0 -699,980 -699,980 15,28 36,55 58,81 z"
   id="path341" />
  <path
   class="fil0"
   d="m 7187,3834 c 0,0 -210,290 -210,290 7,0 16,3 22,3 36,0 65,0 94,0 0,0 171,-238 171,-238 -25,-20 -52,-40 -77,-55 z"
   id="path343" />
  <path
   class="fil0"
   d="m 6731,3566 c 0,0 -340,480 -340,480 31,11 67,20 96,26 0,0 329,-460 329,-460 -29,-13 -56,-29 -85,-46 z"
   id="path345" />
  <path
   class="fil0"
   d="m 6888,3650 c 0,0 -314,439 -314,439 36,3 70,9 106,12 0,0 290,-402 290,-402 -28,-17 -54,-33 -82,-49 z"
   id="path347" />
  <path
   class="fil0"
   d="m 4323,6635 c 7,40 16,80 32,118 0,0 778,-1090 778,-1090 13,-76 19,-143 19,-190 0,0 -829,1162 -829,1162 z"
   id="path349" />
  <path
   class="fil0"
   d="m 2123,858 c -33,-6 -65,-12 -101,-6 0,0 20,34 39,93 0,0 62,-87 62,-87 z"
   id="path351" />
  <path
   class="fil0"
   d="m 1829,6380 c 0,0 25,-36 25,-36 -71,7 -100,7 -100,7 0,0 29,12 75,29 z"
   id="path353" />
  <path
   class="fil0"
   d="m 6197,5520 c 0,0 -145,199 -145,199 22,36 42,58 64,78 0,0 113,-163 113,-163 -12,-34 -26,-73 -32,-114 z"
   id="path355" />
  <path
   class="fil0"
   d="m 6271,5712 c 0,0 -80,116 -80,116 12,3 28,3 48,3 25,0 47,0 65,0 61,-3 83,-9 83,-9 0,0 -22,-9 -52,-36 -19,-16 -42,-41 -64,-74 z"
   id="path357" />
  <path
   class="fil0"
   d="m 752,3677 c 0,0 45,-65 45,-65 -13,-4 -22,-6 -39,-13 -22,-9 -39,-16 -51,-23 -22,-10 -22,-10 -22,-10 0,0 3,10 12,24 10,22 29,54 55,87 z"
   id="path359" />
  <path
   class="fil0"
   d="m 1445,1728 c 16,-48 16,-48 16,-48 0,0 -184,200 -268,477 0,0 226,-313 226,-313 0,-29 10,-64 26,-116 z"
   id="path361" />
  <path
   class="fil0"
   d="m 4598,7017 c 0,0 235,-331 235,-331 -4,-58 7,-129 25,-201 0,0 -345,487 -345,487 27,16 52,32 85,45 z"
   id="path363" />
  <path
   class="fil0"
   d="m 4768,7079 c 45,18 56,25 56,25 0,0 3,-47 5,-116 4,-47 7,-106 7,-168 0,0 -162,223 -162,223 43,17 72,26 94,36 z"
   id="path365" />
  <path
   class="fil0"
   d="m 6161,5268 c 0,0 -210,290 -210,290 17,25 29,52 42,74 7,6 10,9 13,16 0,0 171,-245 171,-245 -7,-45 -9,-90 -16,-135 z"
   id="path367" />
  <path
   class="fil0"
   d="m 6103,4788 c 0,-13 -2,-23 -2,-36 0,0 -353,493 -353,493 20,26 39,52 58,81 0,0 313,-438 313,-438 -7,-33 -9,-67 -16,-100 z"
   id="path369" />
  <path
   class="fil0"
   d="m 5432,5084 c 0,0 -228,319 -228,319 18,23 41,48 61,77 0,0 180,-251 180,-251 -3,-62 -9,-113 -13,-145 z"
   id="path371" />
  <path
   class="fil0"
   d="m 5336,5623 c 3,18 7,31 9,47 0,0 81,-116 81,-116 16,-63 26,-134 26,-196 0,0 -143,196 -143,196 11,24 20,46 27,69 z"
   id="path373" />
  <path
   class="fil0"
   d="m 6055,4514 c 0,0 -426,593 -426,593 22,22 45,44 67,71 0,0 385,-538 385,-538 -10,-49 -20,-91 -26,-126 z"
   id="path375" />
  <path
   class="fil0"
   d="m 5978,4321 c 0,0 -503,701 -503,701 25,4 54,11 93,36 0,0 455,-637 455,-637 -14,-40 -30,-69 -45,-100 z"
   id="path377" />
  <path
   class="fil1"
   d="m 6165,4059 c 0,0 -149,206 -149,206 22,4 55,17 91,40 0,0 96,-139 96,-139 -6,-16 -12,-29 -15,-39 -7,-19 -18,-45 -23,-68 z"
   id="path379" />
  <path
   class="fil0"
   d="m 1293,2924 c 0,0 398,-557 398,-557 -27,-17 -56,-33 -81,-53 0,0 -359,503 -359,503 14,35 26,71 42,107 z"
   id="path381" />
  <path
   class="fil0"
   d="m 1171,3532 c 0,0 -235,324 -235,324 26,17 55,29 84,36 3,0 3,0 5,4 0,0 262,-368 262,-368 -38,0 -77,0 -116,4 z"
   id="path383" />
  <path
   class="fil0"
   d="m 871,3811 c 0,0 188,-261 188,-261 -10,0 -23,4 -34,7 -51,19 -86,33 -119,42 0,0 -102,145 -102,145 19,22 42,45 67,67 z"
   id="path385" />
  <path
   class="fil0"
   d="m 6132,5006 c 0,0 -280,391 -280,391 18,29 39,58 54,87 0,0 242,-335 242,-335 -7,-48 -9,-94 -16,-143 z"
   id="path387" />
  <path
   class="fil0"
   d="m 2390,1824 c 0,0 -971,1361 -971,1361 17,31 33,64 48,93 0,0 942,-1315 942,-1315 -6,-38 -13,-87 -19,-139 z"
   id="path389" />
  <path
   class="fil0"
   d="m 1465,4021 c 23,9 45,23 63,38 7,4 11,7 17,13 0,0 471,-660 471,-660 6,-66 13,-134 26,-198 0,0 -577,807 -577,807 z"
   id="path391" />
  <path
   class="fil0"
   d="m 7357,2092 c 0,0 -22,32 -22,32 35,-3 58,-3 58,-3 0,0 4,-6 -36,-29 z"
   id="path393" />
  <path
   class="fil0"
   d="m 1606,3686 c -13,-27 -31,-58 -58,-84 0,0 -255,357 -255,357 34,7 65,17 97,29 0,0 216,-302 216,-302 z"
   id="path395" />
  <path
   class="fil0"
   d="m 1481,3561 c -26,-11 -62,-20 -101,-23 0,0 -270,376 -270,376 36,11 67,16 100,23 0,0 271,-376 271,-376 z"
   id="path397" />
  <path
   class="fil0"
   d="m 5274,2463 c 0,0 448,-628 448,-628 -42,-6 -77,-11 -106,-13 0,0 -403,563 -403,563 23,27 42,52 61,78 z"
   id="path399" />
  <path
   class="fil0"
   d="m 955,4433 c 0,0 -294,410 -294,410 29,16 58,29 91,38 0,0 355,-500 355,-500 -39,17 -91,36 -152,52 z"
   id="path401" />
  <path
   class="fil0"
   d="m 723,4459 c 0,0 -210,290 -210,290 26,19 51,36 78,54 0,0 251,-351 251,-351 -38,4 -77,7 -119,7 z"
   id="path403" />
  <path
   class="fil0"
   d="m 5529,1806 c -12,-13 -29,-46 62,-84 0,0 87,-123 87,-123 -16,-3 -33,-3 -51,-3 -20,-4 -40,-4 -59,-6 0,0 -478,663 -478,663 27,23 45,45 69,68 0,0 370,-515 370,-515 z"
   id="path405" />
  <path
   class="fil0"
   d="m 352,4372 c 0,0 -74,107 -74,107 16,25 36,54 58,83 0,0 106,-154 106,-154 -29,-10 -58,-20 -90,-36 z"
   id="path407" />
  <path
   class="fil0"
   d="m 1439,4218 c -74,13 -119,38 -164,67 0,0 -442,619 -442,619 22,4 45,6 67,9 16,0 29,0 42,4 0,0 497,-699 497,-699 0,0 0,0 0,0 z"
   id="path409" />
  <path
   class="fil0"
   d="m 4507,1418 c 0,0 -32,-29 -48,-83 0,0 -306,429 -306,429 32,7 67,13 99,22 0,0 319,-448 319,-448 -29,26 -53,55 -64,80 z"
   id="path411" />
  <path
   class="fil0"
   d="m 5971,2528 c 0,0 -396,554 -396,554 9,41 19,83 29,125 0,0 451,-632 451,-632 -46,-22 -75,-38 -84,-47 z"
   id="path413" />
  <path
   class="fil0"
   d="m 526,4433 c 0,0 -138,191 -138,191 19,25 42,47 67,70 0,0 174,-242 174,-242 -35,-6 -67,-13 -103,-19 z"
   id="path415" />
  <path
   class="fil0"
   d="m 3823,1735 c 10,0 24,0 36,0 0,0 648,-909 648,-909 -3,4 -9,7 -16,9 -45,14 -87,27 -132,36 0,0 -615,864 -615,864 26,0 50,0 79,0 z"
   id="path417" />
  <path
   class="fil0"
   d="m 5720,1680 c 57,-19 106,-26 135,-30 33,-6 49,-6 49,-6 0,0 -13,-3 -40,-9 -22,-7 -58,-16 -99,-23 0,0 -45,68 -45,68 z"
   id="path419" />
  <path
   class="fil0"
   d="m 6107,2499 c 0,0 428,-597 428,-597 -34,-4 -70,-6 -110,-10 0,0 -434,607 -434,607 29,0 70,3 116,0 z"
   id="path421" />
  <path
   class="fil0"
   d="m 6516,2830 c -20,-19 -45,-39 -74,-61 0,0 -113,158 -113,158 58,-13 103,-23 138,-30 0,0 49,-67 49,-67 z"
   id="path423" />
  <path
   class="fil0"
   d="m 4062,1751 c 0,0 422,-586 422,-586 7,-20 16,-36 29,-55 136,-194 204,-258 219,-367 0,0 -25,9 -89,34 0,0 -687,960 -687,960 34,4 70,7 106,14 z"
   id="path425" />
  <path
   class="fil0"
   d="m 1542,4211 c 0,0 -506,709 -506,709 38,3 74,3 112,6 0,0 504,-702 504,-702 -26,-6 -65,-13 -110,-13 z"
   id="path427" />
  <path
   class="fil0"
   d="m 7016,2128 c 0,0 106,-145 106,-145 -29,-13 -60,-26 -89,-38 0,0 -133,186 -133,186 35,0 77,0 116,-3 z"
   id="path429" />
  <path
   class="fil0"
   d="m 194,4294 c -19,-12 -30,-18 -30,-18 0,0 7,13 18,35 9,23 29,54 47,94 0,0 49,-69 49,-69 -38,-18 -64,-31 -84,-42 z"
   id="path431" />
  <path
   class="fil0"
   d="m 3641,1744 c 0,0 602,-844 602,-844 -49,10 -97,22 -145,39 0,0 -589,821 -589,821 44,-7 87,-12 132,-16 z"
   id="path433" />
  <path
   class="fil0"
   d="m 7235,2124 c 0,0 51,-70 51,-70 -16,-7 -32,-17 -54,-22 -9,-7 -23,-13 -32,-18 0,0 -85,114 -85,114 43,0 85,0 120,-4 z"
   id="path435" />
  <path
   class="fil0"
   d="m 4752,1990 c 0,0 661,-925 661,-925 -42,6 -86,16 -133,22 0,0 -612,858 -612,858 29,15 55,29 84,45 z"
   id="path437" />
  <path
   class="fil0"
   d="m 6590,2321 c 38,-90 90,-157 206,-180 0,0 155,-223 155,-223 -32,-9 -68,-16 -99,-20 0,0 -404,561 -404,561 61,-22 111,-64 142,-138 z"
   id="path439" />
  <path
   class="fil0"
   d="m 4598,1909 c 0,0 570,-802 570,-802 -45,9 -91,15 -136,25 0,0 -525,737 -525,737 29,11 62,23 91,40 z"
   id="path441" />
  <path
   class="fil0"
   d="m 4898,2086 c 0,0 299,-418 299,-418 -20,-33 -32,-78 3,-140 55,-96 123,-126 217,-164 0,0 348,-489 348,-489 3,-23 3,-23 3,-23 0,0 -90,132 -206,173 -10,4 -20,7 -29,11 0,0 -713,999 -713,999 26,15 51,35 78,51 z"
   id="path443" />
  <path
   class="fil0"
   d="m 6329,2488 c 0,0 429,-596 429,-596 -16,0 -29,0 -42,4 -29,2 -55,6 -83,6 0,0 -427,597 -427,597 45,0 91,-4 123,-11 z"
   id="path445" />
  <path
   class="fil0"
   d="m 6278,3162 c -23,-20 -49,-35 -79,-55 0,0 -615,862 -615,862 -26,110 -64,213 -107,313 0,0 801,-1120 801,-1120 z"
   id="path447" />
  <path
   class="fil0"
   d="m 2074,1228 c 0,0 194,-270 194,-270 -23,-22 -45,-45 -71,-65 0,0 -117,161 -117,161 4,53 4,111 -6,174 z"
   id="path449" />
  <path
   class="fil0"
   d="m 1467,2077 c -12,-52 -22,-87 -31,-120 0,0 -277,386 -277,386 -4,52 -4,107 2,162 0,0 306,-428 306,-428 z"
   id="path451" />
  <path
   class="fil0"
   d="m 4431,1838 c 0,0 479,-670 479,-670 -55,15 -110,38 -162,64 0,0 -412,577 -412,577 32,9 61,20 95,29 z"
   id="path453" />
  <path
   class="fil0"
   d="m 1219,2727 c 0,0 333,-467 333,-467 -24,-27 -42,-55 -55,-87 0,0 -313,438 -313,438 9,38 22,78 35,116 z"
   id="path455" />
  <path
   class="fil0"
   d="m 5361,1574 c 0,0 -398,563 -398,563 21,20 47,39 69,62 0,0 443,-618 443,-618 -43,-7 -81,-11 -114,-7 z"
   id="path457" />
  <path
   class="fil0"
   d="m 5546,2984 c 0,0 787,-1101 787,-1101 -33,-3 -69,-7 -107,-10 0,0 -720,1002 -720,1002 14,35 27,75 40,109 z"
   id="path459" />
  <path
   class="fil0"
   d="m 1557,3447 c 0,0 2070,-2891 2070,-2891 0,-7 0,-14 0,-23 0,-45 -2,-87 -11,-123 0,0 -2106,2945 -2106,2945 18,35 35,67 47,92 z"
   id="path461" />
  <path
   class="fil0"
   d="m 1329,3008 c 16,34 32,67 49,96 0,0 1008,-1411 1008,-1411 0,-65 4,-132 20,-190 3,0 3,-3 3,-3 0,0 -574,802 -574,802 0,25 0,48 4,70 9,58 9,58 9,58 0,0 -36,-9 -83,-29 0,0 -436,607 -436,607 z"
   id="path463" />
  <path
   class="fil0"
   d="m 5468,2791 c 0,0 664,-927 664,-927 -16,0 -29,0 -45,0 -22,-4 -45,-4 -67,-6 0,0 -597,837 -597,837 16,32 32,64 45,96 z"
   id="path465" />
  <path
   class="fil0"
   d="m 2751,2086 c 0,0 687,-964 687,-964 -7,-51 0,-113 32,-180 19,-38 36,-71 52,-100 0,0 -1925,2692 -1925,2692 9,20 13,42 16,58 3,29 6,52 9,72 0,0 471,-660 471,-660 117,-371 349,-693 658,-918 z"
   id="path467" />
  <path
   class="fil0"
   d="m 2084,4053 c 0,0 -623,877 -623,877 38,0 78,-4 116,-4 0,0 546,-760 546,-760 -14,-36 -27,-74 -39,-113 z"
   id="path469" />
  <path
   class="fil0"
   d="m 5620,3319 c 7,49 9,97 13,144 0,0 584,-814 584,-814 -33,-12 -63,-25 -92,-38 0,0 -505,708 -505,708 z"
   id="path471" />
  <path
   class="fil0"
   d="m 2394,1216 c 0,0 -511,715 -511,715 -15,77 -29,152 -38,215 0,0 575,-798 575,-798 -4,-42 -14,-87 -26,-132 z"
   id="path473" />
  <path
   class="fil1"
   d="m 6570,2892 c 0,0 4,0 4,0 0,0 -4,0 -4,0 0,0 0,0 0,0 z"
   id="path475" />
  <path
   class="fil0"
   d="m 3547,207 c 0,0 -879,1228 -879,1228 0,3 0,7 0,10 -14,87 -36,167 -62,241 0,0 983,-1372 983,-1372 -20,-48 -38,-84 -42,-107 z"
   id="path477" />
  <path
   class="fil0"
   d="m 2031,3827 c 0,0 -785,1099 -785,1099 38,4 76,4 115,4 0,0 697,-976 697,-976 -9,-43 -16,-85 -27,-127 z"
   id="path479" />
  <path
   class="fil0"
   d="m 5323,2530 c 20,29 38,59 56,87 0,0 547,-766 547,-766 -38,-4 -74,-7 -109,-11 0,0 -494,690 -494,690 z"
   id="path481" />
  <path
   class="fil0"
   d="m 2203,4352 c -16,-31 -32,-63 -45,-96 0,0 -480,670 -480,670 38,0 76,0 115,0 0,0 410,-574 410,-574 z"
   id="path483" />
  <path
   class="fil0"
   d="m 6374,2727 c -9,-7 -23,-13 -36,-20 -16,-9 -32,-16 -47,-22 0,0 -658,914 -658,914 0,65 -6,125 -13,183 0,0 512,-717 512,-717 -36,-19 -61,-32 -61,-32 0,0 30,-29 132,-67 0,0 171,-239 171,-239 z"
   id="path485" />
  <path
   class="fil0"
   d="m 2315,1029 c 0,0 -309,432 -309,432 -26,80 -51,174 -74,267 0,0 432,-606 432,-606 -13,-32 -29,-64 -49,-93 z"
   id="path487" />
  <path
   class="fil0"
   d="m 3396,1786 c 0,0 566,-795 566,-795 -19,7 -39,16 -59,29 -51,25 -96,51 -133,77 0,0 -523,732 -523,732 49,-18 98,-30 149,-43 z"
   id="path489" />
  <path
   class="fil0"
   d="m 3518,1313 c -16,-20 -34,-52 -54,-91 0,0 -532,745 -532,745 58,-33 119,-62 180,-87 0,0 406,-567 406,-567 z"
   id="path491" />
  <path
   class="fil1"
   d="m 6297,4401 c 0,0 -6,-16 -17,-38 -9,-29 -25,-69 -41,-107 0,0 -69,94 -69,94 36,20 65,31 88,42 26,6 39,9 39,9 z"
   id="path493" />
  <path
   class="fil0"
   d="m 7477,4191 c -10,-32 -23,-67 -42,-105 0,0 -80,112 -80,112 2,4 2,4 2,4 33,22 56,41 74,54 62,44 62,44 62,44 0,0 0,-44 -16,-109 z"
   id="path495" />
  <path
   class="fil2"
   d="m 6886,2136 c 159,8 486,32 832,59 204,16 482,48 641,73 0,0 262,52 270,54 1,13 -1,7 0,16 -220,-19 -569,-41 -569,-41 -194,-8 -318,-12 -515,-21 -167,-7 -347,-14 -480,-16 -68,-3 -780,4 -833,4 -255,6 -481,0 -720,16 -50,3 -121,22 -163,69 -54,48 -141,163 -141,163 226,-10 794,12 841,15 137,4 271,12 400,24 181,20 406,43 473,61 0,0 0,13 0,13 -106,-7 -305,-4 -409,-9 -40,-2 -275,-9 -481,-8 0,0 -677,1 -905,21 -99,170 -105,177 -192,340 -81,3 -191,6 -255,10 0,0 220,-330 220,-330 -106,13 -208,26 -320,43 -99,15 -189,33 -289,53 -110,30 -186,167 -186,167 -32,54 -135,269 -263,562 -86,5 -160,15 -232,22 15,-31 29,-58 46,-87 -66,2 -200,14 -279,23 -248,32 -452,65 -520,75 -24,6 -50,10 -78,19 -55,19 -83,54 -114,104 -27,42 -42,72 -64,117 -8,21 -14,26 -14,26 -45,3 -76,0 -93,31 -30,54 -42,172 -39,226 1,26 6,53 22,76 16,26 33,22 81,26 0,3 12,96 36,178 0,0 -245,1 -245,1 -18,-31 -24,-62 -39,-124 -15,-123 -13,-148 -6,-252 8,-54 11,-84 30,-136 43,-118 66,-152 106,-227 54,-100 125,-175 229,-211 25,-8 107,-27 146,-34 175,-31 220,-36 392,-57 106,-13 249,-25 360,-37 0,0 177,-13 177,-13 45,-97 168,-314 186,-345 78,-126 135,-176 135,-176 36,-35 78,-62 121,-74 146,-47 257,-54 412,-70 129,-13 243,-23 378,-32 73,-91 72,-90 128,-160 42,-53 134,-145 197,-177 59,-29 110,-50 172,-58 105,-8 131,-5 201,-9 0,0 481,-2 481,-2 198,-4 568,11 731,19 z"
   id="path497" />
  <path
   class="fil2"
   d="m 6659,3188 c 261,18 474,36 732,64 212,29 260,33 731,107 0,0 252,46 340,70 1,3 -7,15 -8,18 -381,-45 -944,-76 -1033,-83 -70,-5 -580,-26 -580,-26 0,0 -407,-7 -470,-4 0,0 -704,-5 -1003,13 -296,18 -676,50 -764,59 -233,23 -458,52 -688,79 40,-88 66,-166 110,-263 149,-11 320,-25 468,-36 149,-11 968,-28 1240,-28 379,-1 813,22 925,30 z"
   id="path499" />
  <path
   class="fil2"
   d="m 3386,3731 c 212,0 394,91 483,224 -36,-189 -241,-347 -488,-347 -256,0 -467,170 -491,369 82,-145 273,-246 496,-246 z"
   id="path501" />
  <path
   class="fil2"
   d="m 3943,4239 c -40,-252 -275,-445 -558,-445 -312,0 -565,234 -565,522 0,289 253,522 565,522 135,0 259,-44 356,-117 0,0 -65,-235 -65,-235 -59,90 -166,150 -289,150 -187,0 -338,-140 -338,-313 0,-172 151,-312 338,-312 168,0 307,113 334,260 0,0 0,0 0,0 0,0 157,566 157,566 0,0 223,0 223,0 0,0 -158,-598 -158,-598 z"
   id="path503" />
  <path
   class="fil2"
   d="m 6757,4021 c 0,0 0,-216 0,-216 -242,1 -451,127 -544,307 -91,-180 -296,-307 -535,-311 0,0 0,215 0,215 193,5 348,143 348,312 0,168 -155,306 -348,311 0,0 0,201 0,201 237,-5 440,-129 532,-307 93,183 302,311 547,312 0,0 0,-201 0,-201 -196,-3 -354,-141 -354,-312 0,-170 158,-309 354,-311 z"
   id="path505" />
  <path
   class="fil2"
   d="m 4759,4841 c 0,0 -244,0 -244,0 0,0 0,-750 0,-750 0,0 244,0 244,0 0,0 0,750 0,750 z"
   id="path507" />
  <path
   class="fil2"
   d="m 4748,3798 c 0,0 8,175 8,175 0,0 -8,0 -8,0 0,-88 -79,-175 -177,-175 0,0 0,0 0,0 -1,0 -2,0 -2,0 0,0 0,0 0,0 0,0 -443,0 -443,0 0,0 0,220 0,220 0,0 1027,0 1027,0 0,0 0,-220 0,-220 0,0 -405,0 -405,0 z"
   id="path509" />
  <path
   class="fil2"
   d="m 5696,3745 c 211,0 394,91 482,224 -36,-188 -240,-347 -487,-347 -257,0 -468,170 -492,369 83,-145 274,-246 497,-246 z"
   id="path511" />
  <path
   class="fil2"
   d="m 6755,3730 c 211,0 394,91 482,224 -36,-189 -240,-348 -487,-348 -257,0 -467,171 -491,370 82,-145 273,-246 496,-246 z"
   id="path513" />
 </g>
</svg>
